<mxfile host="app.diagrams.net" modified="2024-03-14T21:34:43.555Z" agent="Mozilla/5.0 (Windows NT 10.0; Win64; x64) AppleWebKit/537.36 (KHTML, like Gecko) Chrome/122.0.0.0 Safari/537.36" etag="Q3v9owDGe3zgjWiQLCmp" version="24.0.6" type="device" pages="3">
  <diagram name="Page-1" id="9C1PLqB0PRBwJ-jDB-Cb">
    <mxGraphModel dx="2206" dy="1135" grid="1" gridSize="10" guides="1" tooltips="1" connect="1" arrows="1" fold="1" page="1" pageScale="1" pageWidth="827" pageHeight="1169" math="0" shadow="0">
      <root>
        <mxCell id="0" />
        <mxCell id="1" parent="0" />
        <mxCell id="PD0sER-EHCjrUDLgJxrn-1" value="Pépiniériste" style="shape=umlActor;verticalLabelPosition=bottom;verticalAlign=top;html=1;" parent="1" vertex="1">
          <mxGeometry x="160" y="80" width="30" height="60" as="geometry" />
        </mxCell>
        <mxCell id="PD0sER-EHCjrUDLgJxrn-2" value="Lister&amp;nbsp;&lt;span style=&quot;background-color: initial;&quot;&gt;plants&lt;/span&gt;" style="ellipse;whiteSpace=wrap;html=1;" parent="1" vertex="1">
          <mxGeometry x="364" y="10" width="140" height="60" as="geometry" />
        </mxCell>
        <mxCell id="PD0sER-EHCjrUDLgJxrn-3" value="Créer compte" style="ellipse;whiteSpace=wrap;html=1;" parent="1" vertex="1">
          <mxGeometry x="594" y="50" width="140" height="70" as="geometry" />
        </mxCell>
        <mxCell id="PD0sER-EHCjrUDLgJxrn-4" value="Consulter plants" style="ellipse;whiteSpace=wrap;html=1;" parent="1" vertex="1">
          <mxGeometry x="364" y="250" width="140" height="60" as="geometry" />
        </mxCell>
        <mxCell id="PD0sER-EHCjrUDLgJxrn-7" value="Producteur" style="shape=umlActor;verticalLabelPosition=bottom;verticalAlign=top;html=1;outlineConnect=0;" parent="1" vertex="1">
          <mxGeometry x="764" y="330" width="30" height="60" as="geometry" />
        </mxCell>
        <mxCell id="PD0sER-EHCjrUDLgJxrn-9" value="Connexion" style="ellipse;whiteSpace=wrap;html=1;" parent="1" vertex="1">
          <mxGeometry x="594" y="130" width="140" height="70" as="geometry" />
        </mxCell>
        <mxCell id="PD0sER-EHCjrUDLgJxrn-14" value="" style="endArrow=none;html=1;rounded=0;entryX=0;entryY=0.5;entryDx=0;entryDy=0;exitX=1;exitY=0.3333333333333333;exitDx=0;exitDy=0;exitPerimeter=0;endFill=0;" parent="1" source="PD0sER-EHCjrUDLgJxrn-1" target="PD0sER-EHCjrUDLgJxrn-2" edge="1">
          <mxGeometry width="50" height="50" relative="1" as="geometry">
            <mxPoint x="204" y="370" as="sourcePoint" />
            <mxPoint x="294" y="335" as="targetPoint" />
          </mxGeometry>
        </mxCell>
        <mxCell id="PD0sER-EHCjrUDLgJxrn-15" value="" style="endArrow=none;html=1;rounded=0;exitX=0;exitY=0.3333333333333333;exitDx=0;exitDy=0;exitPerimeter=0;entryX=1;entryY=0.5;entryDx=0;entryDy=0;endFill=0;" parent="1" source="PD0sER-EHCjrUDLgJxrn-7" target="PD0sER-EHCjrUDLgJxrn-4" edge="1">
          <mxGeometry width="50" height="50" relative="1" as="geometry">
            <mxPoint x="584" y="370" as="sourcePoint" />
            <mxPoint x="494" y="540" as="targetPoint" />
          </mxGeometry>
        </mxCell>
        <mxCell id="PD0sER-EHCjrUDLgJxrn-16" value="Consulter Pépiniériste" style="ellipse;whiteSpace=wrap;html=1;" parent="1" vertex="1">
          <mxGeometry x="364" y="170" width="140" height="60" as="geometry" />
        </mxCell>
        <mxCell id="PD0sER-EHCjrUDLgJxrn-17" value="" style="endArrow=none;html=1;rounded=0;exitX=0;exitY=0.3333333333333333;exitDx=0;exitDy=0;exitPerimeter=0;entryX=1;entryY=0.5;entryDx=0;entryDy=0;endFill=0;" parent="1" source="PD0sER-EHCjrUDLgJxrn-7" target="PD0sER-EHCjrUDLgJxrn-16" edge="1">
          <mxGeometry width="50" height="50" relative="1" as="geometry">
            <mxPoint x="384" y="410" as="sourcePoint" />
            <mxPoint x="684" y="670" as="targetPoint" />
          </mxGeometry>
        </mxCell>
        <mxCell id="PD0sER-EHCjrUDLgJxrn-18" value="Acheter plants" style="ellipse;whiteSpace=wrap;html=1;" parent="1" vertex="1">
          <mxGeometry x="364" y="330" width="140" height="60" as="geometry" />
        </mxCell>
        <mxCell id="PD0sER-EHCjrUDLgJxrn-19" value="" style="endArrow=none;html=1;rounded=0;entryX=1;entryY=0.5;entryDx=0;entryDy=0;exitX=0;exitY=0.3333333333333333;exitDx=0;exitDy=0;exitPerimeter=0;endFill=0;" parent="1" source="PD0sER-EHCjrUDLgJxrn-7" target="PD0sER-EHCjrUDLgJxrn-18" edge="1">
          <mxGeometry width="50" height="50" relative="1" as="geometry">
            <mxPoint x="384" y="410" as="sourcePoint" />
            <mxPoint x="434" y="360" as="targetPoint" />
          </mxGeometry>
        </mxCell>
        <mxCell id="PD0sER-EHCjrUDLgJxrn-20" value="Coopérative" style="shape=umlActor;verticalLabelPosition=bottom;verticalAlign=top;html=1;outlineConnect=0;" parent="1" vertex="1">
          <mxGeometry x="764" y="500" width="30" height="60" as="geometry" />
        </mxCell>
        <mxCell id="PD0sER-EHCjrUDLgJxrn-21" value="Client" style="shape=umlActor;verticalLabelPosition=bottom;verticalAlign=top;html=1;outlineConnect=0;" parent="1" vertex="1">
          <mxGeometry x="160" y="640" width="30" height="60" as="geometry" />
        </mxCell>
        <mxCell id="PD0sER-EHCjrUDLgJxrn-22" value="Exportateur" style="shape=umlActor;verticalLabelPosition=bottom;verticalAlign=top;html=1;outlineConnect=0;" parent="1" vertex="1">
          <mxGeometry x="34" y="710" width="30" height="60" as="geometry" />
        </mxCell>
        <mxCell id="PD0sER-EHCjrUDLgJxrn-23" value="Qualiticien" style="shape=umlActor;verticalLabelPosition=bottom;verticalAlign=top;html=1;outlineConnect=0;" parent="1" vertex="1">
          <mxGeometry x="160" y="290" width="30" height="60" as="geometry" />
        </mxCell>
        <mxCell id="PD0sER-EHCjrUDLgJxrn-24" value="Administrateur" style="shape=umlActor;verticalLabelPosition=bottom;verticalAlign=top;html=1;outlineConnect=0;" parent="1" vertex="1">
          <mxGeometry x="764" y="880" width="30" height="60" as="geometry" />
        </mxCell>
        <mxCell id="PD0sER-EHCjrUDLgJxrn-25" value="User" style="shape=umlActor;verticalLabelPosition=bottom;verticalAlign=top;html=1;outlineConnect=0;" parent="1" vertex="1">
          <mxGeometry x="764" y="680" width="30" height="60" as="geometry" />
        </mxCell>
        <mxCell id="PD0sER-EHCjrUDLgJxrn-32" value="Authentification" style="ellipse;whiteSpace=wrap;html=1;" parent="1" vertex="1">
          <mxGeometry x="364" y="90" width="140" height="60" as="geometry" />
        </mxCell>
        <mxCell id="PD0sER-EHCjrUDLgJxrn-34" value="Extends" style="endArrow=block;endSize=16;endFill=0;html=1;rounded=0;entryX=1;entryY=0;entryDx=0;entryDy=0;exitX=0;exitY=0.5;exitDx=0;exitDy=0;" parent="1" source="PD0sER-EHCjrUDLgJxrn-3" target="PD0sER-EHCjrUDLgJxrn-32" edge="1">
          <mxGeometry width="160" relative="1" as="geometry">
            <mxPoint x="324" y="360" as="sourcePoint" />
            <mxPoint x="484" y="360" as="targetPoint" />
          </mxGeometry>
        </mxCell>
        <mxCell id="PD0sER-EHCjrUDLgJxrn-35" value="Extends" style="endArrow=block;endSize=16;endFill=0;html=1;rounded=0;entryX=1;entryY=0.5;entryDx=0;entryDy=0;exitX=0;exitY=0.5;exitDx=0;exitDy=0;" parent="1" source="PD0sER-EHCjrUDLgJxrn-9" target="PD0sER-EHCjrUDLgJxrn-32" edge="1">
          <mxGeometry width="160" relative="1" as="geometry">
            <mxPoint x="600" y="122" as="sourcePoint" />
            <mxPoint x="514" y="175" as="targetPoint" />
          </mxGeometry>
        </mxCell>
        <mxCell id="PD0sER-EHCjrUDLgJxrn-37" value="" style="endArrow=none;html=1;rounded=0;entryX=0;entryY=0.5;entryDx=0;entryDy=0;exitX=1;exitY=0.3333333333333333;exitDx=0;exitDy=0;exitPerimeter=0;endFill=0;" parent="1" source="PD0sER-EHCjrUDLgJxrn-1" target="PD0sER-EHCjrUDLgJxrn-32" edge="1">
          <mxGeometry width="50" height="50" relative="1" as="geometry">
            <mxPoint x="144" y="20" as="sourcePoint" />
            <mxPoint x="315" y="70" as="targetPoint" />
          </mxGeometry>
        </mxCell>
        <mxCell id="PD0sER-EHCjrUDLgJxrn-38" value="" style="endArrow=none;html=1;rounded=0;exitX=0;exitY=0.3333333333333333;exitDx=0;exitDy=0;exitPerimeter=0;entryX=1;entryY=1;entryDx=0;entryDy=0;endFill=0;" parent="1" source="PD0sER-EHCjrUDLgJxrn-7" target="PD0sER-EHCjrUDLgJxrn-32" edge="1">
          <mxGeometry width="50" height="50" relative="1" as="geometry">
            <mxPoint x="804" y="480" as="sourcePoint" />
            <mxPoint x="514" y="455" as="targetPoint" />
          </mxGeometry>
        </mxCell>
        <mxCell id="e9zVojq4YgNzibaT4v1S-3" value="" style="endArrow=none;html=1;rounded=0;entryX=0;entryY=0;entryDx=0;entryDy=0;exitX=1;exitY=0.3333333333333333;exitDx=0;exitDy=0;exitPerimeter=0;endFill=0;" parent="1" source="PD0sER-EHCjrUDLgJxrn-1" target="PD0sER-EHCjrUDLgJxrn-4" edge="1">
          <mxGeometry width="50" height="50" relative="1" as="geometry">
            <mxPoint x="154" y="70" as="sourcePoint" />
            <mxPoint x="315" y="150" as="targetPoint" />
          </mxGeometry>
        </mxCell>
        <mxCell id="e9zVojq4YgNzibaT4v1S-5" value="Proposer lots" style="ellipse;whiteSpace=wrap;html=1;" parent="1" vertex="1">
          <mxGeometry x="364" y="410" width="140" height="60" as="geometry" />
        </mxCell>
        <mxCell id="e9zVojq4YgNzibaT4v1S-6" value="" style="endArrow=none;html=1;rounded=0;entryX=1;entryY=0.5;entryDx=0;entryDy=0;exitX=0;exitY=0.3333333333333333;exitDx=0;exitDy=0;exitPerimeter=0;endFill=0;" parent="1" source="PD0sER-EHCjrUDLgJxrn-7" target="e9zVojq4YgNzibaT4v1S-5" edge="1">
          <mxGeometry width="50" height="50" relative="1" as="geometry">
            <mxPoint x="814" y="370" as="sourcePoint" />
            <mxPoint x="514" y="445" as="targetPoint" />
          </mxGeometry>
        </mxCell>
        <mxCell id="e9zVojq4YgNzibaT4v1S-7" value="" style="endArrow=none;html=1;rounded=0;exitX=0;exitY=0.3333333333333333;exitDx=0;exitDy=0;exitPerimeter=0;entryX=1;entryY=1;entryDx=0;entryDy=0;endFill=0;" parent="1" source="PD0sER-EHCjrUDLgJxrn-20" target="PD0sER-EHCjrUDLgJxrn-32" edge="1">
          <mxGeometry width="50" height="50" relative="1" as="geometry">
            <mxPoint x="814" y="370" as="sourcePoint" />
            <mxPoint x="493" y="200" as="targetPoint" />
          </mxGeometry>
        </mxCell>
        <mxCell id="e9zVojq4YgNzibaT4v1S-8" value="" style="endArrow=none;html=1;rounded=0;exitX=0;exitY=0.3333333333333333;exitDx=0;exitDy=0;exitPerimeter=0;entryX=1;entryY=0.5;entryDx=0;entryDy=0;endFill=0;" parent="1" source="PD0sER-EHCjrUDLgJxrn-20" target="e9zVojq4YgNzibaT4v1S-5" edge="1">
          <mxGeometry width="50" height="50" relative="1" as="geometry">
            <mxPoint x="814" y="540" as="sourcePoint" />
            <mxPoint x="493" y="200" as="targetPoint" />
          </mxGeometry>
        </mxCell>
        <mxCell id="e9zVojq4YgNzibaT4v1S-9" value="Enregistrer membre" style="ellipse;whiteSpace=wrap;html=1;" parent="1" vertex="1">
          <mxGeometry x="364" y="485" width="140" height="60" as="geometry" />
        </mxCell>
        <mxCell id="e9zVojq4YgNzibaT4v1S-10" value="" style="endArrow=none;html=1;rounded=0;exitX=0;exitY=0.3333333333333333;exitDx=0;exitDy=0;exitPerimeter=0;entryX=1;entryY=0.5;entryDx=0;entryDy=0;endFill=0;" parent="1" source="PD0sER-EHCjrUDLgJxrn-20" target="e9zVojq4YgNzibaT4v1S-9" edge="1">
          <mxGeometry width="50" height="50" relative="1" as="geometry">
            <mxPoint x="814" y="540" as="sourcePoint" />
            <mxPoint x="514" y="535" as="targetPoint" />
          </mxGeometry>
        </mxCell>
        <mxCell id="e9zVojq4YgNzibaT4v1S-11" value="Certifier qualité" style="ellipse;whiteSpace=wrap;html=1;" parent="1" vertex="1">
          <mxGeometry x="364" y="660" width="140" height="60" as="geometry" />
        </mxCell>
        <mxCell id="e9zVojq4YgNzibaT4v1S-13" value="" style="endArrow=none;html=1;rounded=0;entryX=0;entryY=0.5;entryDx=0;entryDy=0;exitX=1;exitY=0.3333333333333333;exitDx=0;exitDy=0;exitPerimeter=0;endFill=0;" parent="1" source="PD0sER-EHCjrUDLgJxrn-23" target="e9zVojq4YgNzibaT4v1S-11" edge="1">
          <mxGeometry width="50" height="50" relative="1" as="geometry">
            <mxPoint x="164" y="80" as="sourcePoint" />
            <mxPoint x="395" y="330" as="targetPoint" />
          </mxGeometry>
        </mxCell>
        <mxCell id="e9zVojq4YgNzibaT4v1S-14" value="" style="endArrow=none;html=1;rounded=0;entryX=0;entryY=0.5;entryDx=0;entryDy=0;exitX=1;exitY=0.3333333333333333;exitDx=0;exitDy=0;exitPerimeter=0;endFill=0;" parent="1" source="PD0sER-EHCjrUDLgJxrn-23" target="PD0sER-EHCjrUDLgJxrn-32" edge="1">
          <mxGeometry width="50" height="50" relative="1" as="geometry">
            <mxPoint x="164" y="320" as="sourcePoint" />
            <mxPoint x="374" y="715" as="targetPoint" />
          </mxGeometry>
        </mxCell>
        <mxCell id="e9zVojq4YgNzibaT4v1S-15" value="Enchérir lot" style="ellipse;whiteSpace=wrap;html=1;" parent="1" vertex="1">
          <mxGeometry x="364" y="830" width="140" height="60" as="geometry" />
        </mxCell>
        <mxCell id="e9zVojq4YgNzibaT4v1S-16" value="" style="endArrow=none;html=1;rounded=0;entryX=1;entryY=0.3333333333333333;entryDx=0;entryDy=0;exitX=0;exitY=0.5;exitDx=0;exitDy=0;endFill=0;entryPerimeter=0;" parent="1" source="PD0sER-EHCjrUDLgJxrn-32" target="PD0sER-EHCjrUDLgJxrn-21" edge="1">
          <mxGeometry width="50" height="50" relative="1" as="geometry">
            <mxPoint x="164" y="80" as="sourcePoint" />
            <mxPoint x="395" y="330" as="targetPoint" />
          </mxGeometry>
        </mxCell>
        <mxCell id="e9zVojq4YgNzibaT4v1S-19" value="" style="endArrow=none;html=1;rounded=0;entryX=0;entryY=0.5;entryDx=0;entryDy=0;exitX=1;exitY=0.3333333333333333;exitDx=0;exitDy=0;endFill=0;exitPerimeter=0;" parent="1" source="PD0sER-EHCjrUDLgJxrn-21" target="e9zVojq4YgNzibaT4v1S-15" edge="1">
          <mxGeometry width="50" height="50" relative="1" as="geometry">
            <mxPoint x="384" y="185" as="sourcePoint" />
            <mxPoint x="174" y="810" as="targetPoint" />
          </mxGeometry>
        </mxCell>
        <mxCell id="e9zVojq4YgNzibaT4v1S-20" value="Transformateur" style="shape=umlActor;verticalLabelPosition=bottom;verticalAlign=top;html=1;outlineConnect=0;" parent="1" vertex="1">
          <mxGeometry x="34" y="550" width="30" height="60" as="geometry" />
        </mxCell>
        <mxCell id="e9zVojq4YgNzibaT4v1S-22" value="Extends" style="endArrow=block;endSize=16;endFill=0;html=1;rounded=0;exitX=1;exitY=0.3333333333333333;exitDx=0;exitDy=0;exitPerimeter=0;entryX=0;entryY=0.3333333333333333;entryDx=0;entryDy=0;entryPerimeter=0;" parent="1" source="e9zVojq4YgNzibaT4v1S-20" target="PD0sER-EHCjrUDLgJxrn-21" edge="1">
          <mxGeometry width="160" relative="1" as="geometry">
            <mxPoint x="334" y="570" as="sourcePoint" />
            <mxPoint x="494" y="570" as="targetPoint" />
          </mxGeometry>
        </mxCell>
        <mxCell id="e9zVojq4YgNzibaT4v1S-23" value="Extends" style="endArrow=block;endSize=16;endFill=0;html=1;rounded=0;exitX=1;exitY=0.3333333333333333;exitDx=0;exitDy=0;exitPerimeter=0;entryX=0;entryY=0.3333333333333333;entryDx=0;entryDy=0;entryPerimeter=0;" parent="1" source="PD0sER-EHCjrUDLgJxrn-22" target="PD0sER-EHCjrUDLgJxrn-21" edge="1">
          <mxGeometry width="160" relative="1" as="geometry">
            <mxPoint x="74" y="580" as="sourcePoint" />
            <mxPoint x="124" y="660" as="targetPoint" />
          </mxGeometry>
        </mxCell>
        <mxCell id="e9zVojq4YgNzibaT4v1S-24" value="Consulter lots" style="ellipse;whiteSpace=wrap;html=1;" parent="1" vertex="1">
          <mxGeometry x="364" y="740" width="140" height="60" as="geometry" />
        </mxCell>
        <mxCell id="e9zVojq4YgNzibaT4v1S-26" value="" style="endArrow=none;html=1;rounded=0;entryX=0;entryY=0.5;entryDx=0;entryDy=0;exitX=1;exitY=0.3333333333333333;exitDx=0;exitDy=0;endFill=0;exitPerimeter=0;" parent="1" source="PD0sER-EHCjrUDLgJxrn-21" target="e9zVojq4YgNzibaT4v1S-24" edge="1">
          <mxGeometry width="50" height="50" relative="1" as="geometry">
            <mxPoint x="164" y="560" as="sourcePoint" />
            <mxPoint x="374" y="895" as="targetPoint" />
          </mxGeometry>
        </mxCell>
        <mxCell id="e9zVojq4YgNzibaT4v1S-27" value="" style="endArrow=none;html=1;rounded=0;entryX=1;entryY=0.5;entryDx=0;entryDy=0;exitX=0;exitY=0.3333333333333333;exitDx=0;exitDy=0;exitPerimeter=0;endFill=0;" parent="1" source="PD0sER-EHCjrUDLgJxrn-7" target="e9zVojq4YgNzibaT4v1S-24" edge="1">
          <mxGeometry width="50" height="50" relative="1" as="geometry">
            <mxPoint x="164" y="320" as="sourcePoint" />
            <mxPoint x="374" y="715" as="targetPoint" />
          </mxGeometry>
        </mxCell>
        <mxCell id="e9zVojq4YgNzibaT4v1S-28" value="" style="endArrow=none;html=1;rounded=0;entryX=1;entryY=0.5;entryDx=0;entryDy=0;exitX=0;exitY=0.3333333333333333;exitDx=0;exitDy=0;exitPerimeter=0;endFill=0;" parent="1" source="PD0sER-EHCjrUDLgJxrn-20" target="e9zVojq4YgNzibaT4v1S-24" edge="1">
          <mxGeometry width="50" height="50" relative="1" as="geometry">
            <mxPoint x="774" y="360" as="sourcePoint" />
            <mxPoint x="514" y="805" as="targetPoint" />
          </mxGeometry>
        </mxCell>
        <mxCell id="e9zVojq4YgNzibaT4v1S-29" value="" style="endArrow=none;html=1;rounded=0;entryX=1;entryY=0.5;entryDx=0;entryDy=0;exitX=0;exitY=0.3333333333333333;exitDx=0;exitDy=0;exitPerimeter=0;endFill=0;" parent="1" source="PD0sER-EHCjrUDLgJxrn-25" target="e9zVojq4YgNzibaT4v1S-24" edge="1">
          <mxGeometry width="50" height="50" relative="1" as="geometry">
            <mxPoint x="774" y="530" as="sourcePoint" />
            <mxPoint x="514" y="805" as="targetPoint" />
          </mxGeometry>
        </mxCell>
        <mxCell id="e9zVojq4YgNzibaT4v1S-30" value="Gérer utilisateurs / rôles" style="ellipse;whiteSpace=wrap;html=1;" parent="1" vertex="1">
          <mxGeometry x="364" y="900" width="140" height="60" as="geometry" />
        </mxCell>
        <mxCell id="e9zVojq4YgNzibaT4v1S-32" value="" style="endArrow=none;html=1;rounded=0;entryX=1;entryY=0.5;entryDx=0;entryDy=0;exitX=0;exitY=0.3333333333333333;exitDx=0;exitDy=0;exitPerimeter=0;endFill=0;" parent="1" source="PD0sER-EHCjrUDLgJxrn-24" target="e9zVojq4YgNzibaT4v1S-30" edge="1">
          <mxGeometry width="50" height="50" relative="1" as="geometry">
            <mxPoint x="774" y="710" as="sourcePoint" />
            <mxPoint x="514" y="805" as="targetPoint" />
          </mxGeometry>
        </mxCell>
        <mxCell id="e9zVojq4YgNzibaT4v1S-33" value="" style="endArrow=none;html=1;rounded=0;entryX=1;entryY=1;entryDx=0;entryDy=0;exitX=0;exitY=0.3333333333333333;exitDx=0;exitDy=0;exitPerimeter=0;endFill=0;" parent="1" source="PD0sER-EHCjrUDLgJxrn-24" target="PD0sER-EHCjrUDLgJxrn-32" edge="1">
          <mxGeometry width="50" height="50" relative="1" as="geometry">
            <mxPoint x="774" y="710" as="sourcePoint" />
            <mxPoint x="514" y="805" as="targetPoint" />
          </mxGeometry>
        </mxCell>
        <mxCell id="e9zVojq4YgNzibaT4v1S-35" value="Gérer lots" style="ellipse;whiteSpace=wrap;html=1;" parent="1" vertex="1">
          <mxGeometry x="364" y="970" width="140" height="60" as="geometry" />
        </mxCell>
        <mxCell id="e9zVojq4YgNzibaT4v1S-37" value="" style="endArrow=none;html=1;rounded=0;entryX=1;entryY=0.5;entryDx=0;entryDy=0;exitX=0;exitY=0.3333333333333333;exitDx=0;exitDy=0;exitPerimeter=0;endFill=0;" parent="1" source="PD0sER-EHCjrUDLgJxrn-24" target="e9zVojq4YgNzibaT4v1S-35" edge="1">
          <mxGeometry width="50" height="50" relative="1" as="geometry">
            <mxPoint x="774" y="910" as="sourcePoint" />
            <mxPoint x="514" y="880" as="targetPoint" />
          </mxGeometry>
        </mxCell>
        <mxCell id="eBKBXZ24z7pHWnDMdt9S-1" value="Ajouter des champs&amp;nbsp; qui caractérise producteur" style="ellipse;whiteSpace=wrap;html=1;" parent="1" vertex="1">
          <mxGeometry x="364" y="1040" width="140" height="60" as="geometry" />
        </mxCell>
        <mxCell id="eBKBXZ24z7pHWnDMdt9S-7" value="" style="endArrow=none;html=1;rounded=0;endFill=0;entryX=1;entryY=0.5;entryDx=0;entryDy=0;" parent="1" target="eBKBXZ24z7pHWnDMdt9S-1" edge="1">
          <mxGeometry width="50" height="50" relative="1" as="geometry">
            <mxPoint x="760" y="900" as="sourcePoint" />
            <mxPoint x="490" y="1030" as="targetPoint" />
          </mxGeometry>
        </mxCell>
        <mxCell id="eBKBXZ24z7pHWnDMdt9S-8" value="Enregistrer un lot" style="ellipse;whiteSpace=wrap;html=1;" parent="1" vertex="1">
          <mxGeometry x="364" y="570" width="140" height="60" as="geometry" />
        </mxCell>
        <mxCell id="eBKBXZ24z7pHWnDMdt9S-9" value="" style="endArrow=none;html=1;rounded=0;endFill=0;entryX=0.096;entryY=0.167;entryDx=0;entryDy=0;entryPerimeter=0;exitX=1;exitY=0.3333333333333333;exitDx=0;exitDy=0;exitPerimeter=0;" parent="1" source="PD0sER-EHCjrUDLgJxrn-23" target="eBKBXZ24z7pHWnDMdt9S-8" edge="1">
          <mxGeometry width="50" height="50" relative="1" as="geometry">
            <mxPoint x="200" y="320" as="sourcePoint" />
            <mxPoint x="374" y="740" as="targetPoint" />
          </mxGeometry>
        </mxCell>
        <mxCell id="eBKBXZ24z7pHWnDMdt9S-10" value="Exporter des rapports CSV" style="ellipse;whiteSpace=wrap;html=1;" parent="1" vertex="1">
          <mxGeometry x="364" y="1109" width="140" height="60" as="geometry" />
        </mxCell>
        <mxCell id="eBKBXZ24z7pHWnDMdt9S-14" value="" style="endArrow=none;html=1;rounded=0;exitX=1;exitY=0.5;exitDx=0;exitDy=0;" parent="1" source="eBKBXZ24z7pHWnDMdt9S-10" target="PD0sER-EHCjrUDLgJxrn-24" edge="1">
          <mxGeometry width="50" height="50" relative="1" as="geometry">
            <mxPoint x="610" y="1135" as="sourcePoint" />
            <mxPoint x="779" y="1110" as="targetPoint" />
          </mxGeometry>
        </mxCell>
      </root>
    </mxGraphModel>
  </diagram>
  <diagram id="lkSX_jIXF3VOpNlS2YpG" name="Page-2">
    <mxGraphModel dx="4037" dy="1640" grid="1" gridSize="10" guides="1" tooltips="1" connect="1" arrows="1" fold="1" page="1" pageScale="1" pageWidth="850" pageHeight="1100" math="0" shadow="0">
      <root>
        <mxCell id="0" />
        <mxCell id="1" parent="0" />
        <mxCell id="ocDbkeYh3zg-vNuJ6lrF-5" value="Producteur" style="shape=umlActor;verticalLabelPosition=bottom;verticalAlign=top;html=1;outlineConnect=0;" vertex="1" parent="1">
          <mxGeometry x="-50" y="770" width="30" height="60" as="geometry" />
        </mxCell>
        <mxCell id="ocDbkeYh3zg-vNuJ6lrF-6" value="Se connecter" style="ellipse;whiteSpace=wrap;html=1;" vertex="1" parent="1">
          <mxGeometry x="364" y="380" width="140" height="70" as="geometry" />
        </mxCell>
        <mxCell id="ocDbkeYh3zg-vNuJ6lrF-13" value="Coopérative" style="shape=umlActor;verticalLabelPosition=bottom;verticalAlign=top;html=1;outlineConnect=0;" vertex="1" parent="1">
          <mxGeometry x="130" y="770" width="30" height="60" as="geometry" />
        </mxCell>
        <mxCell id="ocDbkeYh3zg-vNuJ6lrF-14" value="Utilisateur" style="shape=umlActor;verticalLabelPosition=bottom;verticalAlign=top;html=1;outlineConnect=0;" vertex="1" parent="1">
          <mxGeometry x="130" y="610" width="30" height="60" as="geometry" />
        </mxCell>
        <mxCell id="ocDbkeYh3zg-vNuJ6lrF-15" value="Client" style="shape=umlActor;verticalLabelPosition=bottom;verticalAlign=top;html=1;outlineConnect=0;" vertex="1" parent="1">
          <mxGeometry x="50" y="770" width="30" height="60" as="geometry" />
        </mxCell>
        <mxCell id="ocDbkeYh3zg-vNuJ6lrF-16" value="Qualiticien" style="shape=umlActor;verticalLabelPosition=bottom;verticalAlign=top;html=1;outlineConnect=0;" vertex="1" parent="1">
          <mxGeometry x="-140" y="770" width="30" height="60" as="geometry" />
        </mxCell>
        <mxCell id="ocDbkeYh3zg-vNuJ6lrF-45" value="Gérer utilisateurs" style="ellipse;whiteSpace=wrap;html=1;" vertex="1" parent="1">
          <mxGeometry x="364" y="180" width="140" height="60" as="geometry" />
        </mxCell>
        <mxCell id="ocDbkeYh3zg-vNuJ6lrF-46" value="" style="endArrow=none;html=1;rounded=0;entryX=0;entryY=0.5;entryDx=0;entryDy=0;endFill=0;" edge="1" parent="1" target="ocDbkeYh3zg-vNuJ6lrF-45">
          <mxGeometry width="50" height="50" relative="1" as="geometry">
            <mxPoint x="150" y="260" as="sourcePoint" />
            <mxPoint x="514" y="155" as="targetPoint" />
          </mxGeometry>
        </mxCell>
        <mxCell id="ocDbkeYh3zg-vNuJ6lrF-118" style="edgeStyle=orthogonalEdgeStyle;rounded=0;orthogonalLoop=1;jettySize=auto;html=1;entryX=0;entryY=0.5;entryDx=0;entryDy=0;" edge="1" parent="1" source="ocDbkeYh3zg-vNuJ6lrF-63" target="ocDbkeYh3zg-vNuJ6lrF-78">
          <mxGeometry relative="1" as="geometry" />
        </mxCell>
        <mxCell id="ocDbkeYh3zg-vNuJ6lrF-63" value="S&#39;inscrire et inscrire une organisation" style="ellipse;whiteSpace=wrap;html=1;" vertex="1" parent="1">
          <mxGeometry x="364" y="490" width="140" height="70" as="geometry" />
        </mxCell>
        <mxCell id="ocDbkeYh3zg-vNuJ6lrF-69" value="Valider inscription (role, etc.)" style="ellipse;whiteSpace=wrap;html=1;" vertex="1" parent="1">
          <mxGeometry x="364" y="270" width="140" height="60" as="geometry" />
        </mxCell>
        <mxCell id="ocDbkeYh3zg-vNuJ6lrF-70" value="" style="endArrow=none;html=1;rounded=0;entryX=0;entryY=0.5;entryDx=0;entryDy=0;endFill=0;" edge="1" parent="1" target="ocDbkeYh3zg-vNuJ6lrF-69">
          <mxGeometry width="50" height="50" relative="1" as="geometry">
            <mxPoint x="150" y="260" as="sourcePoint" />
            <mxPoint x="374" y="220" as="targetPoint" />
          </mxGeometry>
        </mxCell>
        <mxCell id="ocDbkeYh3zg-vNuJ6lrF-78" value="L&#39;inscription et l&#39;inscription d&#39;organisation se fait dans le meme formulaire en meme temps. Ensuite l&#39;administrateur valide l&#39;inscription après l&#39;avoir vérifiée." style="text;html=1;align=left;verticalAlign=middle;whiteSpace=wrap;rounded=0;fillColor=#ffe6cc;strokeColor=#d79b00;" vertex="1" parent="1">
          <mxGeometry x="600" y="465" width="200" height="120" as="geometry" />
        </mxCell>
        <mxCell id="ocDbkeYh3zg-vNuJ6lrF-95" value="Administrateur" style="shape=umlActor;verticalLabelPosition=bottom;verticalAlign=top;html=1;outlineConnect=0;" vertex="1" parent="1">
          <mxGeometry x="130" y="250" width="30" height="60" as="geometry" />
        </mxCell>
        <mxCell id="ocDbkeYh3zg-vNuJ6lrF-116" value="" style="endArrow=none;html=1;rounded=0;exitX=0.012;exitY=0.607;exitDx=0;exitDy=0;exitPerimeter=0;entryX=1;entryY=0.3333333333333333;entryDx=0;entryDy=0;endFill=0;entryPerimeter=0;" edge="1" parent="1" source="ocDbkeYh3zg-vNuJ6lrF-63" target="ocDbkeYh3zg-vNuJ6lrF-14">
          <mxGeometry width="50" height="50" relative="1" as="geometry">
            <mxPoint x="170" y="470" as="sourcePoint" />
            <mxPoint x="374" y="640" as="targetPoint" />
          </mxGeometry>
        </mxCell>
        <mxCell id="ocDbkeYh3zg-vNuJ6lrF-117" value="" style="endArrow=none;html=1;rounded=0;exitX=0;exitY=0.5;exitDx=0;exitDy=0;entryX=1;entryY=0.3333333333333333;entryDx=0;entryDy=0;endFill=0;entryPerimeter=0;" edge="1" parent="1" source="ocDbkeYh3zg-vNuJ6lrF-6" target="ocDbkeYh3zg-vNuJ6lrF-14">
          <mxGeometry width="50" height="50" relative="1" as="geometry">
            <mxPoint x="376" y="542" as="sourcePoint" />
            <mxPoint x="170" y="640" as="targetPoint" />
          </mxGeometry>
        </mxCell>
        <mxCell id="ocDbkeYh3zg-vNuJ6lrF-120" value="" style="endArrow=none;html=1;rounded=0;exitX=0.05;exitY=0.762;exitDx=0;exitDy=0;entryX=1;entryY=0.5;entryDx=0;entryDy=0;endFill=0;exitPerimeter=0;" edge="1" parent="1" source="ocDbkeYh3zg-vNuJ6lrF-139" target="ocDbkeYh3zg-vNuJ6lrF-136">
          <mxGeometry width="50" height="50" relative="1" as="geometry">
            <mxPoint x="250.00000000000045" y="650" as="sourcePoint" />
            <mxPoint x="56" y="630" as="targetPoint" />
          </mxGeometry>
        </mxCell>
        <mxCell id="ocDbkeYh3zg-vNuJ6lrF-145" value="&amp;lt;&amp;lt;extends&amp;gt;&amp;gt;" style="edgeLabel;html=1;align=center;verticalAlign=middle;resizable=0;points=[];" vertex="1" connectable="0" parent="ocDbkeYh3zg-vNuJ6lrF-120">
          <mxGeometry x="-0.1883" y="1" relative="1" as="geometry">
            <mxPoint as="offset" />
          </mxGeometry>
        </mxCell>
        <mxCell id="ocDbkeYh3zg-vNuJ6lrF-123" value="" style="endArrow=none;html=1;rounded=0;endFill=0;startArrow=classic;startFill=1;entryX=0.5;entryY=0;entryDx=0;entryDy=0;entryPerimeter=0;" edge="1" parent="1" target="ocDbkeYh3zg-vNuJ6lrF-13">
          <mxGeometry width="50" height="50" relative="1" as="geometry">
            <mxPoint x="144.86" y="700" as="sourcePoint" />
            <mxPoint x="144.86" y="750" as="targetPoint" />
          </mxGeometry>
        </mxCell>
        <mxCell id="ocDbkeYh3zg-vNuJ6lrF-124" value="" style="endArrow=none;html=1;rounded=0;endFill=0;startArrow=classic;startFill=1;entryX=0.5;entryY=0;entryDx=0;entryDy=0;entryPerimeter=0;" edge="1" parent="1" target="ocDbkeYh3zg-vNuJ6lrF-15">
          <mxGeometry width="50" height="50" relative="1" as="geometry">
            <mxPoint x="130" y="700" as="sourcePoint" />
            <mxPoint x="64.70000000000002" y="760" as="targetPoint" />
          </mxGeometry>
        </mxCell>
        <mxCell id="ocDbkeYh3zg-vNuJ6lrF-125" value="" style="endArrow=none;html=1;rounded=0;endFill=0;startArrow=classic;startFill=1;entryX=0.5;entryY=0;entryDx=0;entryDy=0;entryPerimeter=0;" edge="1" parent="1" target="ocDbkeYh3zg-vNuJ6lrF-5">
          <mxGeometry width="50" height="50" relative="1" as="geometry">
            <mxPoint x="120" y="700" as="sourcePoint" />
            <mxPoint x="-29.999999999999986" y="760" as="targetPoint" />
          </mxGeometry>
        </mxCell>
        <mxCell id="ocDbkeYh3zg-vNuJ6lrF-126" value="" style="endArrow=none;html=1;rounded=0;endFill=0;startArrow=classic;startFill=1;entryX=0.5;entryY=0;entryDx=0;entryDy=0;entryPerimeter=0;" edge="1" parent="1" target="ocDbkeYh3zg-vNuJ6lrF-16">
          <mxGeometry width="50" height="50" relative="1" as="geometry">
            <mxPoint x="100" y="680" as="sourcePoint" />
            <mxPoint x="-120" y="770" as="targetPoint" />
          </mxGeometry>
        </mxCell>
        <mxCell id="ocDbkeYh3zg-vNuJ6lrF-128" value="" style="endArrow=none;html=1;rounded=0;endFill=0;startArrow=classic;startFill=1;entryX=0.5;entryY=0;entryDx=0;entryDy=0;entryPerimeter=0;" edge="1" parent="1" target="ocDbkeYh3zg-vNuJ6lrF-129">
          <mxGeometry width="50" height="50" relative="1" as="geometry">
            <mxPoint x="65" y="860" as="sourcePoint" />
            <mxPoint x="60" y="880" as="targetPoint" />
          </mxGeometry>
        </mxCell>
        <mxCell id="ocDbkeYh3zg-vNuJ6lrF-129" value="Transformateur" style="shape=umlActor;verticalLabelPosition=bottom;verticalAlign=top;html=1;outlineConnect=0;" vertex="1" parent="1">
          <mxGeometry x="50" y="920" width="30" height="60" as="geometry" />
        </mxCell>
        <mxCell id="ocDbkeYh3zg-vNuJ6lrF-130" value="Exportateur" style="shape=umlActor;verticalLabelPosition=bottom;verticalAlign=top;html=1;outlineConnect=0;" vertex="1" parent="1">
          <mxGeometry x="-40" y="920" width="30" height="60" as="geometry" />
        </mxCell>
        <mxCell id="ocDbkeYh3zg-vNuJ6lrF-131" value="" style="endArrow=none;html=1;rounded=0;endFill=0;startArrow=classic;startFill=1;entryX=0.5;entryY=0;entryDx=0;entryDy=0;entryPerimeter=0;" edge="1" parent="1" target="ocDbkeYh3zg-vNuJ6lrF-130">
          <mxGeometry width="50" height="50" relative="1" as="geometry">
            <mxPoint x="60" y="860" as="sourcePoint" />
            <mxPoint x="-20" y="929.9999999999998" as="targetPoint" />
          </mxGeometry>
        </mxCell>
        <mxCell id="ocDbkeYh3zg-vNuJ6lrF-134" value="" style="endArrow=none;html=1;rounded=0;entryX=0;entryY=0.5;entryDx=0;entryDy=0;endFill=0;exitX=0.75;exitY=0.1;exitDx=0;exitDy=0;exitPerimeter=0;" edge="1" parent="1" source="ocDbkeYh3zg-vNuJ6lrF-95" target="ocDbkeYh3zg-vNuJ6lrF-6">
          <mxGeometry width="50" height="50" relative="1" as="geometry">
            <mxPoint x="160" y="270" as="sourcePoint" />
            <mxPoint x="374" y="310" as="targetPoint" />
          </mxGeometry>
        </mxCell>
        <mxCell id="ocDbkeYh3zg-vNuJ6lrF-135" value="" style="endArrow=none;html=1;rounded=0;entryX=1;entryY=0.3333333333333333;entryDx=0;entryDy=0;endFill=0;entryPerimeter=0;" edge="1" parent="1" target="ocDbkeYh3zg-vNuJ6lrF-13">
          <mxGeometry width="50" height="50" relative="1" as="geometry">
            <mxPoint x="374" y="770" as="sourcePoint" />
            <mxPoint x="170" y="800" as="targetPoint" />
          </mxGeometry>
        </mxCell>
        <mxCell id="ocDbkeYh3zg-vNuJ6lrF-136" value="Gérer membre&amp;nbsp;" style="ellipse;whiteSpace=wrap;html=1;" vertex="1" parent="1">
          <mxGeometry x="250" y="730" width="140" height="60" as="geometry" />
        </mxCell>
        <mxCell id="ocDbkeYh3zg-vNuJ6lrF-139" value="Enregistrer membre" style="ellipse;whiteSpace=wrap;html=1;" vertex="1" parent="1">
          <mxGeometry x="450" y="660" width="140" height="60" as="geometry" />
        </mxCell>
        <mxCell id="ocDbkeYh3zg-vNuJ6lrF-140" value="Supprimer membre" style="ellipse;whiteSpace=wrap;html=1;" vertex="1" parent="1">
          <mxGeometry x="460" y="750" width="140" height="60" as="geometry" />
        </mxCell>
        <mxCell id="ocDbkeYh3zg-vNuJ6lrF-141" value="Modifier rôle" style="ellipse;whiteSpace=wrap;html=1;" vertex="1" parent="1">
          <mxGeometry x="470" y="850" width="140" height="60" as="geometry" />
        </mxCell>
        <mxCell id="ocDbkeYh3zg-vNuJ6lrF-142" value="" style="endArrow=none;html=1;rounded=0;exitX=0;exitY=0.5;exitDx=0;exitDy=0;entryX=1;entryY=0.5;entryDx=0;entryDy=0;endFill=0;" edge="1" parent="1" source="ocDbkeYh3zg-vNuJ6lrF-140" target="ocDbkeYh3zg-vNuJ6lrF-136">
          <mxGeometry width="50" height="50" relative="1" as="geometry">
            <mxPoint x="463" y="726" as="sourcePoint" />
            <mxPoint x="400" y="770" as="targetPoint" />
          </mxGeometry>
        </mxCell>
        <mxCell id="ocDbkeYh3zg-vNuJ6lrF-144" value="&amp;lt;&amp;lt;extends&amp;gt;&amp;gt;" style="edgeLabel;html=1;align=center;verticalAlign=middle;resizable=0;points=[];" vertex="1" connectable="0" parent="ocDbkeYh3zg-vNuJ6lrF-142">
          <mxGeometry x="0.122" y="3" relative="1" as="geometry">
            <mxPoint as="offset" />
          </mxGeometry>
        </mxCell>
        <mxCell id="ocDbkeYh3zg-vNuJ6lrF-143" value="" style="endArrow=none;html=1;rounded=0;exitX=0;exitY=0.5;exitDx=0;exitDy=0;entryX=1;entryY=0.5;entryDx=0;entryDy=0;endFill=0;" edge="1" parent="1" source="ocDbkeYh3zg-vNuJ6lrF-141" target="ocDbkeYh3zg-vNuJ6lrF-136">
          <mxGeometry width="50" height="50" relative="1" as="geometry">
            <mxPoint x="473" y="736" as="sourcePoint" />
            <mxPoint x="410" y="780" as="targetPoint" />
          </mxGeometry>
        </mxCell>
        <mxCell id="ocDbkeYh3zg-vNuJ6lrF-146" value="&amp;lt;&amp;lt;extends&amp;gt;&amp;gt;" style="edgeLabel;html=1;align=center;verticalAlign=middle;resizable=0;points=[];" vertex="1" connectable="0" parent="ocDbkeYh3zg-vNuJ6lrF-143">
          <mxGeometry x="0.1237" y="-5" relative="1" as="geometry">
            <mxPoint as="offset" />
          </mxGeometry>
        </mxCell>
      </root>
    </mxGraphModel>
  </diagram>
  <diagram id="G-pimydaQspWqroqjTEw" name="Brouillon">
    <mxGraphModel dx="4307" dy="1342" grid="1" gridSize="10" guides="1" tooltips="1" connect="1" arrows="1" fold="1" page="1" pageScale="1" pageWidth="850" pageHeight="1100" math="0" shadow="0">
      <root>
        <mxCell id="0" />
        <mxCell id="1" parent="0" />
        <mxCell id="82Nu8KalKZS_hMeaMO9_-1" style="edgeStyle=orthogonalEdgeStyle;rounded=0;orthogonalLoop=1;jettySize=auto;html=1;" edge="1" parent="1" source="82Nu8KalKZS_hMeaMO9_-3">
          <mxGeometry relative="1" as="geometry">
            <mxPoint x="-870" y="1580" as="targetPoint" />
          </mxGeometry>
        </mxCell>
        <mxCell id="82Nu8KalKZS_hMeaMO9_-2" value="secrétaire" style="edgeLabel;html=1;align=center;verticalAlign=middle;resizable=0;points=[];" vertex="1" connectable="0" parent="82Nu8KalKZS_hMeaMO9_-1">
          <mxGeometry x="0.7067" y="4" relative="1" as="geometry">
            <mxPoint as="offset" />
          </mxGeometry>
        </mxCell>
        <mxCell id="82Nu8KalKZS_hMeaMO9_-3" value="Administrateur valide" style="shape=umlActor;verticalLabelPosition=bottom;verticalAlign=top;html=1;outlineConnect=0;" vertex="1" parent="1">
          <mxGeometry x="-670" y="1350" width="30" height="60" as="geometry" />
        </mxCell>
        <mxCell id="82Nu8KalKZS_hMeaMO9_-4" style="edgeStyle=orthogonalEdgeStyle;rounded=0;orthogonalLoop=1;jettySize=auto;html=1;" edge="1" parent="1" source="82Nu8KalKZS_hMeaMO9_-6">
          <mxGeometry relative="1" as="geometry">
            <mxPoint x="-720" y="930" as="targetPoint" />
          </mxGeometry>
        </mxCell>
        <mxCell id="82Nu8KalKZS_hMeaMO9_-5" value="Inscrit une coopérative" style="edgeLabel;html=1;align=center;verticalAlign=middle;resizable=0;points=[];" vertex="1" connectable="0" parent="82Nu8KalKZS_hMeaMO9_-4">
          <mxGeometry x="-0.0717" y="2" relative="1" as="geometry">
            <mxPoint as="offset" />
          </mxGeometry>
        </mxCell>
        <mxCell id="82Nu8KalKZS_hMeaMO9_-6" value="La secrétaire (role logique)" style="shape=umlActor;verticalLabelPosition=bottom;verticalAlign=top;html=1;outlineConnect=0;" vertex="1" parent="1">
          <mxGeometry x="-920" y="900" width="30" height="60" as="geometry" />
        </mxCell>
        <mxCell id="82Nu8KalKZS_hMeaMO9_-7" value="Coopérative" style="shape=cylinder3;whiteSpace=wrap;html=1;boundedLbl=1;backgroundOutline=1;size=15;" vertex="1" parent="1">
          <mxGeometry x="-710" y="890" width="60" height="80" as="geometry" />
        </mxCell>
        <mxCell id="82Nu8KalKZS_hMeaMO9_-8" style="edgeStyle=orthogonalEdgeStyle;rounded=0;orthogonalLoop=1;jettySize=auto;html=1;" edge="1" parent="1" source="82Nu8KalKZS_hMeaMO9_-10">
          <mxGeometry relative="1" as="geometry">
            <mxPoint x="-650" y="1330" as="targetPoint" />
          </mxGeometry>
        </mxCell>
        <mxCell id="82Nu8KalKZS_hMeaMO9_-9" value="est envoyé" style="edgeLabel;html=1;align=center;verticalAlign=middle;resizable=0;points=[];" vertex="1" connectable="0" parent="82Nu8KalKZS_hMeaMO9_-8">
          <mxGeometry x="-0.1079" relative="1" as="geometry">
            <mxPoint as="offset" />
          </mxGeometry>
        </mxCell>
        <mxCell id="82Nu8KalKZS_hMeaMO9_-10" value="&lt;h1 style=&quot;margin-top: 0px;&quot;&gt;Form&lt;/h1&gt;&lt;p&gt;Nom, numéro tva, etc.&amp;nbsp;&lt;/p&gt;&lt;p&gt;Cree son compte (mdp, email + infos)&lt;/p&gt;&lt;p&gt;(Admin = président) et elle se coche&lt;/p&gt;" style="text;html=1;whiteSpace=wrap;overflow=hidden;rounded=0;" vertex="1" parent="1">
          <mxGeometry x="-740" y="980" width="180" height="170" as="geometry" />
        </mxCell>
        <mxCell id="82Nu8KalKZS_hMeaMO9_-11" value="validation inscription" style="text;html=1;align=center;verticalAlign=middle;resizable=0;points=[];autosize=1;strokeColor=none;fillColor=none;" vertex="1" parent="1">
          <mxGeometry x="-930" y="1580" width="130" height="30" as="geometry" />
        </mxCell>
        <mxCell id="82Nu8KalKZS_hMeaMO9_-12" style="edgeStyle=orthogonalEdgeStyle;rounded=0;orthogonalLoop=1;jettySize=auto;html=1;" edge="1" parent="1" source="82Nu8KalKZS_hMeaMO9_-14">
          <mxGeometry relative="1" as="geometry">
            <mxPoint x="-860" y="2320" as="targetPoint" />
          </mxGeometry>
        </mxCell>
        <mxCell id="82Nu8KalKZS_hMeaMO9_-13" value="secrétaire" style="edgeLabel;html=1;align=center;verticalAlign=middle;resizable=0;points=[];" vertex="1" connectable="0" parent="82Nu8KalKZS_hMeaMO9_-12">
          <mxGeometry x="0.7067" y="4" relative="1" as="geometry">
            <mxPoint as="offset" />
          </mxGeometry>
        </mxCell>
        <mxCell id="82Nu8KalKZS_hMeaMO9_-14" value="Administrateur valide" style="shape=umlActor;verticalLabelPosition=bottom;verticalAlign=top;html=1;outlineConnect=0;" vertex="1" parent="1">
          <mxGeometry x="-660" y="2090" width="30" height="60" as="geometry" />
        </mxCell>
        <mxCell id="82Nu8KalKZS_hMeaMO9_-15" style="edgeStyle=orthogonalEdgeStyle;rounded=0;orthogonalLoop=1;jettySize=auto;html=1;" edge="1" parent="1" source="82Nu8KalKZS_hMeaMO9_-17">
          <mxGeometry relative="1" as="geometry">
            <mxPoint x="-710" y="1670" as="targetPoint" />
          </mxGeometry>
        </mxCell>
        <mxCell id="82Nu8KalKZS_hMeaMO9_-16" value="Inscrit une entreprise (lui-meme ou la sienne)" style="edgeLabel;html=1;align=center;verticalAlign=middle;resizable=0;points=[];" vertex="1" connectable="0" parent="82Nu8KalKZS_hMeaMO9_-15">
          <mxGeometry x="-0.0717" y="2" relative="1" as="geometry">
            <mxPoint as="offset" />
          </mxGeometry>
        </mxCell>
        <mxCell id="82Nu8KalKZS_hMeaMO9_-17" value="Transformateur" style="shape=umlActor;verticalLabelPosition=bottom;verticalAlign=top;html=1;outlineConnect=0;" vertex="1" parent="1">
          <mxGeometry x="-1040" y="1640" width="30" height="60" as="geometry" />
        </mxCell>
        <mxCell id="82Nu8KalKZS_hMeaMO9_-18" value="Coopérative" style="shape=cylinder3;whiteSpace=wrap;html=1;boundedLbl=1;backgroundOutline=1;size=15;" vertex="1" parent="1">
          <mxGeometry x="-700" y="1630" width="60" height="80" as="geometry" />
        </mxCell>
        <mxCell id="82Nu8KalKZS_hMeaMO9_-19" style="edgeStyle=orthogonalEdgeStyle;rounded=0;orthogonalLoop=1;jettySize=auto;html=1;" edge="1" parent="1" source="82Nu8KalKZS_hMeaMO9_-21">
          <mxGeometry relative="1" as="geometry">
            <mxPoint x="-640" y="2070" as="targetPoint" />
          </mxGeometry>
        </mxCell>
        <mxCell id="82Nu8KalKZS_hMeaMO9_-20" value="est envoyé" style="edgeLabel;html=1;align=center;verticalAlign=middle;resizable=0;points=[];" vertex="1" connectable="0" parent="82Nu8KalKZS_hMeaMO9_-19">
          <mxGeometry x="-0.1079" relative="1" as="geometry">
            <mxPoint as="offset" />
          </mxGeometry>
        </mxCell>
        <mxCell id="82Nu8KalKZS_hMeaMO9_-21" value="&lt;h1 style=&quot;margin-top: 0px;&quot;&gt;Form&lt;/h1&gt;&lt;p&gt;Nom, numéro tva, etc.&amp;nbsp;&lt;/p&gt;&lt;p&gt;Cree son compte (mdp, email + infos)&lt;/p&gt;&lt;p&gt;(Admin = président) et elle se coche&lt;/p&gt;" style="text;html=1;whiteSpace=wrap;overflow=hidden;rounded=0;" vertex="1" parent="1">
          <mxGeometry x="-730" y="1720" width="180" height="170" as="geometry" />
        </mxCell>
        <mxCell id="82Nu8KalKZS_hMeaMO9_-22" value="validation inscription" style="text;html=1;align=center;verticalAlign=middle;resizable=0;points=[];autosize=1;strokeColor=none;fillColor=none;" vertex="1" parent="1">
          <mxGeometry x="-920" y="2320" width="130" height="30" as="geometry" />
        </mxCell>
        <mxCell id="82Nu8KalKZS_hMeaMO9_-23" value="Cas pratique -&amp;gt; brouillon pour y voir claire :" style="text;html=1;align=center;verticalAlign=middle;resizable=0;points=[];autosize=1;strokeColor=none;fillColor=none;" vertex="1" parent="1">
          <mxGeometry x="-990" y="830" width="250" height="30" as="geometry" />
        </mxCell>
      </root>
    </mxGraphModel>
  </diagram>
</mxfile>
